<mxfile host="65bd71144e">
    <diagram id="TkwugZCeL2hz2DEQ9Z-l" name="페이지-1">
        <mxGraphModel dx="1858" dy="1089" grid="1" gridSize="10" guides="1" tooltips="1" connect="1" arrows="1" fold="1" page="1" pageScale="1" pageWidth="827" pageHeight="1169" math="0" shadow="0">
            <root>
                <mxCell id="0"/>
                <mxCell id="1" parent="0"/>
                <mxCell id="3" value="&lt;font style=&quot;font-size: 25px;&quot;&gt;회원가입 flow&lt;/font&gt;" style="text;html=1;align=center;verticalAlign=middle;resizable=0;points=[];autosize=1;strokeColor=none;fillColor=none;" parent="1" vertex="1">
                    <mxGeometry x="-420" y="20" width="160" height="40" as="geometry"/>
                </mxCell>
                <mxCell id="6" value="조건" style="rhombus;whiteSpace=wrap;html=1;" parent="1" vertex="1">
                    <mxGeometry x="-780" y="80" width="120" height="80" as="geometry"/>
                </mxCell>
                <mxCell id="7" value="액션" style="rounded=0;whiteSpace=wrap;html=1;" parent="1" vertex="1">
                    <mxGeometry x="-780" y="10" width="120" height="50" as="geometry"/>
                </mxCell>
                <mxCell id="8" value="시작/종료" style="ellipse;whiteSpace=wrap;html=1;" parent="1" vertex="1">
                    <mxGeometry x="-780" y="190" width="120" height="80" as="geometry"/>
                </mxCell>
                <mxCell id="19" value="YES" style="edgeStyle=none;html=1;" parent="1" source="12" target="18" edge="1">
                    <mxGeometry relative="1" as="geometry"/>
                </mxCell>
                <mxCell id="33" value="NO" style="edgeStyle=none;html=1;" parent="1" source="12" target="32" edge="1">
                    <mxGeometry relative="1" as="geometry"/>
                </mxCell>
                <mxCell id="12" value="중복 이메일?" style="rhombus;whiteSpace=wrap;html=1;" parent="1" vertex="1">
                    <mxGeometry x="-210" y="190" width="160" height="110" as="geometry"/>
                </mxCell>
                <mxCell id="17" value="에러" style="shape=hexagon;perimeter=hexagonPerimeter2;whiteSpace=wrap;html=1;fixedSize=1;" parent="1" vertex="1">
                    <mxGeometry x="-780" y="310" width="120" height="80" as="geometry"/>
                </mxCell>
                <mxCell id="18" value="에러: 이메일 중복" style="shape=hexagon;perimeter=hexagonPerimeter2;whiteSpace=wrap;html=1;fixedSize=1;" parent="1" vertex="1">
                    <mxGeometry x="-380" y="200" width="120" height="80" as="geometry"/>
                </mxCell>
                <mxCell id="35" value="YES" style="edgeStyle=none;html=1;" parent="1" source="32" target="34" edge="1">
                    <mxGeometry relative="1" as="geometry"/>
                </mxCell>
                <mxCell id="38" value="NO" style="edgeStyle=none;html=1;" parent="1" source="32" target="37" edge="1">
                    <mxGeometry relative="1" as="geometry"/>
                </mxCell>
                <mxCell id="32" value="1일 이메일 인증횟수 초과?" style="rhombus;whiteSpace=wrap;html=1;" parent="1" vertex="1">
                    <mxGeometry x="-210" y="355" width="160" height="110" as="geometry"/>
                </mxCell>
                <mxCell id="34" value="에러: 이메일 횟수 초과" style="shape=hexagon;perimeter=hexagonPerimeter2;whiteSpace=wrap;html=1;fixedSize=1;" parent="1" vertex="1">
                    <mxGeometry x="-380" y="370" width="120" height="80" as="geometry"/>
                </mxCell>
                <mxCell id="40" value="" style="edgeStyle=none;html=1;" parent="1" source="37" target="39" edge="1">
                    <mxGeometry relative="1" as="geometry"/>
                </mxCell>
                <mxCell id="37" value="이메일 인증 코드 전송" style="rounded=0;whiteSpace=wrap;html=1;" parent="1" vertex="1">
                    <mxGeometry x="-210" y="530" width="160" height="70" as="geometry"/>
                </mxCell>
                <mxCell id="44" value="" style="edgeStyle=none;html=1;" parent="1" source="39" target="43" edge="1">
                    <mxGeometry relative="1" as="geometry"/>
                </mxCell>
                <mxCell id="39" value="이메일 인증 코드 확인" style="rounded=0;whiteSpace=wrap;html=1;" parent="1" vertex="1">
                    <mxGeometry x="-210" y="680" width="160" height="70" as="geometry"/>
                </mxCell>
                <mxCell id="47" value="NO" style="edgeStyle=none;html=1;" parent="1" source="43" target="46" edge="1">
                    <mxGeometry relative="1" as="geometry"/>
                </mxCell>
                <mxCell id="52" value="" style="edgeStyle=none;html=1;" parent="1" source="43" target="51" edge="1">
                    <mxGeometry relative="1" as="geometry"/>
                </mxCell>
                <mxCell id="43" value="인증번호 일치?" style="rhombus;whiteSpace=wrap;html=1;" parent="1" vertex="1">
                    <mxGeometry x="-210" y="810" width="160" height="110" as="geometry"/>
                </mxCell>
                <mxCell id="46" value="에러: 인증번호 불일치" style="shape=hexagon;perimeter=hexagonPerimeter2;whiteSpace=wrap;html=1;fixedSize=1;" parent="1" vertex="1">
                    <mxGeometry x="-380" y="825" width="120" height="80" as="geometry"/>
                </mxCell>
                <mxCell id="54" value="NO" style="edgeStyle=none;html=1;" parent="1" source="51" target="53" edge="1">
                    <mxGeometry relative="1" as="geometry"/>
                </mxCell>
                <mxCell id="105" value="" style="edgeStyle=none;html=1;" edge="1" parent="1" source="51" target="104">
                    <mxGeometry relative="1" as="geometry"/>
                </mxCell>
                <mxCell id="51" value="패스워드 유효?" style="rhombus;whiteSpace=wrap;html=1;" parent="1" vertex="1">
                    <mxGeometry x="-210" y="970" width="160" height="110" as="geometry"/>
                </mxCell>
                <mxCell id="53" value="에러: 패스워드 에러" style="shape=hexagon;perimeter=hexagonPerimeter2;whiteSpace=wrap;html=1;fixedSize=1;" parent="1" vertex="1">
                    <mxGeometry x="-380" y="985" width="120" height="80" as="geometry"/>
                </mxCell>
                <mxCell id="61" value="NO" style="edgeStyle=none;html=1;" parent="1" target="60" edge="1">
                    <mxGeometry relative="1" as="geometry">
                        <mxPoint x="493.99999999999955" y="409.9999999999998" as="sourcePoint"/>
                    </mxGeometry>
                </mxCell>
                <mxCell id="85" value="" style="edgeStyle=none;html=1;" edge="1" parent="1" target="84">
                    <mxGeometry relative="1" as="geometry">
                        <mxPoint x="750" y="409.9999999999998" as="sourcePoint"/>
                    </mxGeometry>
                </mxCell>
                <mxCell id="71" value="" style="edgeStyle=none;html=1;" edge="1" parent="1" source="62" target="70">
                    <mxGeometry relative="1" as="geometry"/>
                </mxCell>
                <mxCell id="62" value="소셜정보 확인" style="rounded=0;whiteSpace=wrap;html=1;" parent="1" vertex="1">
                    <mxGeometry x="290" y="380" width="160" height="70" as="geometry"/>
                </mxCell>
                <mxCell id="87" value="" style="edgeStyle=none;html=1;" edge="1" parent="1" source="64" target="62">
                    <mxGeometry relative="1" as="geometry"/>
                </mxCell>
                <mxCell id="64" value="각 소셜 인증 진행" style="shape=tape;whiteSpace=wrap;html=1;" parent="1" vertex="1">
                    <mxGeometry x="290" y="195" width="160" height="100" as="geometry"/>
                </mxCell>
                <mxCell id="67" value="부분 생략" style="shape=tape;whiteSpace=wrap;html=1;" parent="1" vertex="1">
                    <mxGeometry x="-780" y="410" width="113" height="100" as="geometry"/>
                </mxCell>
                <mxCell id="73" value="YES" style="edgeStyle=none;html=1;" edge="1" parent="1" source="70" target="72">
                    <mxGeometry relative="1" as="geometry"/>
                </mxCell>
                <mxCell id="89" value="NO" style="edgeStyle=none;html=1;" edge="1" parent="1" source="70" target="88">
                    <mxGeometry relative="1" as="geometry"/>
                </mxCell>
                <mxCell id="70" value="존재?" style="rhombus;whiteSpace=wrap;html=1;" vertex="1" parent="1">
                    <mxGeometry x="290" y="510" width="160" height="110" as="geometry"/>
                </mxCell>
                <mxCell id="72" value="에러: 이미존재하는 유저" style="shape=hexagon;perimeter=hexagonPerimeter2;whiteSpace=wrap;html=1;fixedSize=1;" vertex="1" parent="1">
                    <mxGeometry x="566" y="525" width="120" height="80" as="geometry"/>
                </mxCell>
                <mxCell id="78" value="" style="edgeStyle=none;html=1;" edge="1" parent="1" source="75" target="77">
                    <mxGeometry relative="1" as="geometry"/>
                </mxCell>
                <mxCell id="75" value="소셜정보 연동 권유" style="rounded=0;whiteSpace=wrap;html=1;" vertex="1" parent="1">
                    <mxGeometry x="290" y="990" width="160" height="70" as="geometry"/>
                </mxCell>
                <mxCell id="80" value="YES" style="edgeStyle=none;html=1;" edge="1" parent="1" source="77" target="79">
                    <mxGeometry relative="1" as="geometry"/>
                </mxCell>
                <mxCell id="109" value="NO" style="edgeStyle=none;html=1;" edge="1" parent="1" source="77" target="107">
                    <mxGeometry relative="1" as="geometry"/>
                </mxCell>
                <mxCell id="77" value="동의?" style="rhombus;whiteSpace=wrap;html=1;" vertex="1" parent="1">
                    <mxGeometry x="290" y="1129" width="160" height="110" as="geometry"/>
                </mxCell>
                <mxCell id="110" style="edgeStyle=none;html=1;" edge="1" parent="1" source="79" target="104">
                    <mxGeometry relative="1" as="geometry"/>
                </mxCell>
                <mxCell id="79" value="소셜 정보 연동" style="rounded=0;whiteSpace=wrap;html=1;" vertex="1" parent="1">
                    <mxGeometry x="290" y="1375" width="160" height="70" as="geometry"/>
                </mxCell>
                <mxCell id="91" value="" style="edgeStyle=none;html=1;" edge="1" parent="1" source="88" target="90">
                    <mxGeometry relative="1" as="geometry"/>
                </mxCell>
                <mxCell id="88" value="이메일 존재 여부 확인" style="rounded=0;whiteSpace=wrap;html=1;" vertex="1" parent="1">
                    <mxGeometry x="290" y="680" width="160" height="70" as="geometry"/>
                </mxCell>
                <mxCell id="92" value="YES" style="edgeStyle=none;html=1;" edge="1" parent="1" source="90" target="75">
                    <mxGeometry relative="1" as="geometry"/>
                </mxCell>
                <mxCell id="96" value="NO" style="edgeStyle=none;html=1;" edge="1" parent="1" source="90" target="93">
                    <mxGeometry relative="1" as="geometry"/>
                </mxCell>
                <mxCell id="90" value="존재?" style="rhombus;whiteSpace=wrap;html=1;" vertex="1" parent="1">
                    <mxGeometry x="290" y="810" width="160" height="110" as="geometry"/>
                </mxCell>
                <mxCell id="106" style="edgeStyle=none;html=1;entryX=1;entryY=0.5;entryDx=0;entryDy=0;" edge="1" parent="1" source="93" target="104">
                    <mxGeometry relative="1" as="geometry">
                        <Array as="points">
                            <mxPoint x="124" y="1410"/>
                        </Array>
                    </mxGeometry>
                </mxCell>
                <mxCell id="93" value="새로운 유저 생성" style="rounded=0;whiteSpace=wrap;html=1;" vertex="1" parent="1">
                    <mxGeometry x="43.5" y="830" width="160" height="70" as="geometry"/>
                </mxCell>
                <mxCell id="101" value="" style="edgeStyle=none;html=1;" edge="1" parent="1" source="100" target="64">
                    <mxGeometry relative="1" as="geometry"/>
                </mxCell>
                <mxCell id="100" value="OAUTH" style="ellipse;whiteSpace=wrap;html=1;" vertex="1" parent="1">
                    <mxGeometry x="310" y="65" width="120" height="80" as="geometry"/>
                </mxCell>
                <mxCell id="103" value="" style="edgeStyle=none;html=1;" edge="1" parent="1" source="102" target="12">
                    <mxGeometry relative="1" as="geometry"/>
                </mxCell>
                <mxCell id="102" value="LOCAL" style="ellipse;whiteSpace=wrap;html=1;" vertex="1" parent="1">
                    <mxGeometry x="-190" y="60" width="120" height="80" as="geometry"/>
                </mxCell>
                <mxCell id="104" value="회원가입 완료" style="ellipse;whiteSpace=wrap;html=1;" vertex="1" parent="1">
                    <mxGeometry x="-190" y="1370" width="120" height="80" as="geometry"/>
                </mxCell>
                <mxCell id="107" value="회원가입 종료" style="ellipse;whiteSpace=wrap;html=1;" vertex="1" parent="1">
                    <mxGeometry x="550" y="1144" width="120" height="80" as="geometry"/>
                </mxCell>
                <mxCell id="112" value="Oauth 선 가입시, 비밀번호 변경 로직을 통해&amp;nbsp;&lt;br&gt;로컬 로그인 접근가능" style="text;html=1;align=left;verticalAlign=middle;resizable=0;points=[];autosize=1;strokeColor=none;fillColor=none;" vertex="1" parent="1">
                    <mxGeometry x="-420" y="60" width="240" height="40" as="geometry"/>
                </mxCell>
            </root>
        </mxGraphModel>
    </diagram>
</mxfile>